<svg width="41" height="32" viewBox="0 0 41 32" fill="none" xmlns="http://www.w3.org/2000/svg">
<path d="M12.4172 0C8.29769 0 4.94629 3.57642 4.94629 7.9724C4.94629 12.3684 8.29769 15.9448 12.4172 15.9448C16.5367 15.9448 19.8881 12.3684 19.8881 7.9724C19.8881 3.57642 16.5367 0 12.4172 0Z" fill="#3FA1FD"/>
<path d="M29.4024 1.14087C29.3855 1.14087 29.3684 1.14095 29.3515 1.14103C27.6227 1.15543 26.0079 1.89011 24.8046 3.20988C23.6224 4.50633 22.9796 6.21665 22.9944 8.0257C23.0093 9.83475 23.6801 11.5341 24.8833 12.8109C26.096 14.0975 27.7024 14.8041 29.412 14.8041C29.4292 14.8041 29.4464 14.804 29.4637 14.8039C31.1925 14.7895 32.8073 14.0548 34.0106 12.7351C35.1928 11.4386 35.8356 9.7283 35.8208 7.91917C35.79 4.17025 32.9157 1.14087 29.4024 1.14087Z" fill="#3FA1FD"/>
<path d="M29.7178 16.1093H29.0974C26.2083 16.1093 23.5719 17.2148 21.5813 19.0267C22.0793 19.4113 22.5534 19.8305 23.0027 20.2827C24.3281 21.6167 25.3689 23.1712 26.0964 24.9027C26.7519 26.462 27.1261 28.1049 27.2132 29.797H40.9304V27.3937C40.9304 21.1718 35.9005 16.1093 29.7178 16.1093Z" fill="#3FA1FD"/>
<path d="M24.81 29.797C24.5837 26.1288 22.7363 22.9024 19.9791 20.8346C17.9733 19.33 15.4855 18.4393 12.7907 18.4393H12.044C5.39208 18.4394 0 23.8663 0 30.5613V32H24.8339V30.5613C24.8339 30.3047 24.826 30.0496 24.81 29.797Z" fill="#3FA1FD"/>
</svg>
